# xmcd
#
# Track frame offsets:
#	150
#	79670
#	178519
#	228799
#
# Disc length: 3370 seconds
#
# Revision: 0
# Processed by: cddbd v1.5.2PL0 Copyright (c) Steve Scherf et al.
# Submitted via: audiograbber 1.83.01
#
DISCID=200d2804
DTITLE=Klaus Schulze and Pete Namlook - The Dark Side Of The Moog [Boxset 3 - Vol
DTITLE=9-11 2016] [CD 3) - Vol. 11
DYEAR=2008
DGENRE=Electronic
TTITLE0=The Heart Of Our Nearest Star Part I
TTITLE1=The Heart Of Our Nearest Star Part II
TTITLE2=The Heart Of Our Nearest Star Part III
TTITLE3=The Heart Of Our Nearest Star Part IV
EXTD=
EXTT0=
EXTT1=
EXTT2=
EXTT3=
PLAYORDER=
